<?xml version="1.0" encoding="UTF-8"?>
<!DOCTYPE svg PUBLIC "-//W3C//DTD SVG 1.1//EN" "http://www.w3.org/Graphics/SVG/1.1/DTD/svg11.dtd">
<svg xmlns="http://www.w3.org/2000/svg" version="1.1" width="475px" height="475px" style="shape-rendering:geometricPrecision; text-rendering:geometricPrecision; image-rendering:optimizeQuality; fill-rule:evenodd; clip-rule:evenodd" xmlns:xlink="http://www.w3.org/1999/xlink">
<g><path style="opacity:1" fill="#f55f62" d="M -0.5,-0.5 C 157.833,-0.5 316.167,-0.5 474.5,-0.5C 474.5,157.833 474.5,316.167 474.5,474.5C 316.167,474.5 157.833,474.5 -0.5,474.5C -0.5,316.167 -0.5,157.833 -0.5,-0.5 Z"/></g>
<g><path style="opacity:1" fill="#fee8e8" d="M 18.5,18.5 C 165.5,18.5 312.5,18.5 459.5,18.5C 459.5,165.5 459.5,312.5 459.5,459.5C 459.5,312.5 459.5,165.5 459.5,18.5C 312.5,18.5 165.5,18.5 18.5,18.5 Z"/></g>
<g><path style="opacity:1" fill="#f35d60" d="M 20.5,21.5 C 165.833,21.5 311.167,21.5 456.5,21.5C 456.5,166.833 456.5,312.167 456.5,457.5C 311.167,457.5 165.833,457.5 20.5,457.5C 20.5,312.167 20.5,166.833 20.5,21.5 Z"/></g>
<g><path style="opacity:1" fill="#fdd0d0" d="M 272.5,70.5 C 273.5,70.5 274.5,70.5 275.5,70.5C 275.5,71.5 275.5,72.5 275.5,73.5C 274.5,73.5 273.5,73.5 272.5,73.5C 272.5,72.5 272.5,71.5 272.5,70.5 Z"/></g>
<g><path style="opacity:1" fill="#fdd8d8" d="M 254.5,76.5 C 258.65,76.6848 262.984,76.3515 267.5,75.5C 267.378,79.8383 267.045,80.1716 266.5,76.5C 263.675,76.0807 261.509,77.0807 260,79.5C 259.502,82.4816 259.335,85.4816 259.5,88.5C 258.833,89.8333 258.167,89.8333 257.5,88.5C 257.5,84.5 257.5,80.5 257.5,76.5C 256.5,76.5 255.5,76.5 254.5,76.5 Z"/></g>
<g><path style="opacity:1" fill="#fde9ea" d="M 270.5,76.5 C 271.568,75.5655 272.901,75.2322 274.5,75.5C 274.5,79.8333 274.5,84.1667 274.5,88.5C 274.167,89.8333 273.833,89.8333 273.5,88.5C 273.5,84.5 273.5,80.5 273.5,76.5C 272.5,76.5 271.5,76.5 270.5,76.5 Z"/></g>
<g><path style="opacity:1" fill="#fcd8d8" d="M 206.5,75.5 C 217.818,74.99 220.485,79.49 214.5,89C 203.105,89.8027 200.439,85.3027 206.5,75.5 Z"/></g>
<g><path style="opacity:1" fill="#f36264" d="M 207.5,76.5 C 212.658,75.3312 215.658,77.3312 216.5,82.5C 214.834,88.6927 211.334,90.026 206,86.5C 205.037,82.8513 205.537,79.518 207.5,76.5 Z"/></g>
<g><path style="opacity:1" fill="#fcd6d7" d="M 224.5,75.5 C 227.681,75.7423 230.681,75.7423 233.5,75.5C 234.704,81.203 233.704,81.703 230.5,77C 225.671,75.6623 223.338,77.4956 223.5,82.5C 223.513,87.999 226.18,89.8323 231.5,88C 233.552,85.9379 234.218,86.1046 233.5,88.5C 221.454,90.4529 218.454,86.1196 224.5,75.5 Z"/></g>
<g><path style="opacity:1" fill="#fccccc" d="M 241.5,75.5 C 246.882,74.2552 250.549,76.0885 252.5,81C 252.355,81.772 252.022,82.4387 251.5,83C 247.848,83.4986 244.182,83.6653 240.5,83.5C 241.174,88.1514 243.841,89.6514 248.5,88C 249.424,86.5108 250.424,86.3441 251.5,87.5C 247.5,90.1667 243.5,90.1667 239.5,87.5C 237.727,82.9888 238.393,78.9888 241.5,75.5 Z"/></g>
<g><path style="opacity:1" fill="#f36264" d="M 242.5,76.5 C 246.224,75.7731 248.891,77.1064 250.5,80.5C 246.833,81.8333 243.167,81.8333 239.5,80.5C 240.524,79.1482 241.524,77.8149 242.5,76.5 Z"/></g>
<g><path style="opacity:1" fill="#fcd6d6" d="M 193.5,70.5 C 194.568,69.5655 195.901,69.2322 197.5,69.5C 197.5,75.8333 197.5,82.1667 197.5,88.5C 200.989,88.6911 201.156,89.0244 198,89.5C 194.643,89.2863 191.143,89.1196 187.5,89C 185.115,87.5374 184.115,85.3708 184.5,82.5C 184.326,80.3066 184.993,78.4733 186.5,77C 189.688,75.6842 193.022,75.1842 196.5,75.5C 196.5,73.8333 196.5,72.1667 196.5,70.5C 195.5,70.5 194.5,70.5 193.5,70.5 Z"/></g>
<g><path style="opacity:1" fill="#f36466" d="M 189.5,76.5 C 191.833,76.5 194.167,76.5 196.5,76.5C 196.665,79.5184 196.498,82.5184 196,85.5C 193.294,88.9779 190.294,89.3112 187,86.5C 186.333,83.8333 186.333,81.1667 187,78.5C 187.995,77.9341 188.828,77.2674 189.5,76.5 Z"/></g>
<g><path style="opacity:1" fill="#fddbdb" d="M 282.5,75.5 C 285.448,75.2229 288.281,75.5562 291,76.5C 291.739,80.8841 292.905,85.0508 294.5,89C 290.265,89.0671 285.932,89.0671 281.5,89C 278.833,86.6667 278.833,84.3333 281.5,82C 284.482,81.502 287.482,81.3354 290.5,81.5C 289.593,76.588 286.76,75.2547 282,77.5C 281.5,77.3333 281,77.1667 280.5,77C 281.416,76.7216 282.082,76.2216 282.5,75.5 Z"/></g>
<g><path style="opacity:1" fill="#f36062" d="M 283.5,82.5 C 285.833,82.5 288.167,82.5 290.5,82.5C 289.737,87.7722 286.903,89.4389 282,87.5C 281.36,85.4567 281.86,83.7901 283.5,82.5 Z"/></g>
<g><path style="opacity:1" fill="#fef5f5" d="M 121.5,183.5 C 121.444,188.731 122.111,193.731 123.5,198.5C 124.352,213.747 122.852,228.747 119,243.5C 114.313,250.929 108.313,252.263 101,247.5C 97.1773,228.335 97.844,209.335 103,190.5C 105.978,184.046 108.811,177.546 111.5,171C 110.033,167.518 108.533,164.018 107,160.5C 105.815,154.711 107.982,153.044 113.5,155.5C 113.467,159.406 114.801,162.74 117.5,165.5C 121.167,163.333 124.833,161.167 128.5,159C 142.682,151.723 155.515,153.556 167,164.5C 169.435,167.934 171.435,171.6 173,175.5C 176.567,189.575 173.067,201.408 162.5,211C 158.621,212.049 154.954,213.549 151.5,215.5C 147.583,215.309 143.583,215.143 139.5,215C 135.28,212.302 131.114,209.469 127,206.5C 126.505,204.527 126.338,202.527 126.5,200.5C 131.686,200.093 135.353,202.26 137.5,207C 150.157,211.558 159.324,207.724 165,195.5C 169.554,182.607 166.387,172.107 155.5,164C 148.529,160.849 141.529,160.849 134.5,164C 130.007,166.079 125.674,168.412 121.5,171C 120.576,175.099 120.576,179.265 121.5,183.5 Z"/></g>
<g><path style="opacity:1" fill="#fef6f6" d="M 260.5,153.5 C 261.675,153.281 262.675,153.614 263.5,154.5C 265.424,157.348 267.091,160.348 268.5,163.5C 277.952,158.47 287.952,155.97 298.5,156C 306.323,158.638 308.656,163.638 305.5,171C 300.638,172.476 298.471,170.643 299,165.5C 297.314,163.081 294.981,162.081 292,162.5C 284.312,163.395 277.312,166.062 271,170.5C 271.63,178.498 272.63,186.498 274,194.5C 274.667,203.167 274.667,211.833 274,220.5C 267.095,227.651 261.095,226.984 256,218.5C 253.227,206.872 253.227,195.205 256,183.5C 257.856,179.355 260.023,175.522 262.5,172C 261.594,167.36 260.261,162.86 258.5,158.5C 258.437,156.486 259.103,154.819 260.5,153.5 Z"/></g>
<g><path style="opacity:1" fill="#fef4f4" d="M 184.5,157.5 C 187.044,157.104 189.211,157.771 191,159.5C 191.333,170.833 191.667,182.167 192,193.5C 194.897,212.523 205.064,218.357 222.5,211C 231.581,201.595 235.581,190.261 234.5,177C 234.333,173.833 234.167,170.667 234,167.5C 231.036,164.395 230.87,161.228 233.5,158C 235.441,157.257 237.274,157.424 239,158.5C 239.376,166.388 240.209,174.221 241.5,182C 242.009,197.985 235.676,210.318 222.5,219C 205.917,225.478 194.084,220.645 187,204.5C 183.387,188.984 182.553,173.317 184.5,157.5 Z"/></g>
<g><path style="opacity:1" fill="#fef6f7" d="M 337.5,157.5 C 355.802,155.895 368.968,163.228 377,179.5C 380.521,202.308 371.021,216.141 348.5,221C 335.869,222.9 325.035,219.4 316,210.5C 314.257,206.016 312.257,201.683 310,197.5C 308.547,184.1 313.047,173.267 323.5,165C 327.815,161.678 332.482,159.178 337.5,157.5 Z"/></g>
<g><path style="opacity:1" fill="#f35e61" d="M 341.5,164.5 C 348.312,164.603 354.646,166.437 360.5,170C 365.815,175.896 369.148,182.563 370.5,190C 370.733,200.436 366.067,207.77 356.5,212C 345.337,216.906 334.671,215.906 324.5,209C 317.502,200.94 315.668,191.773 319,181.5C 324.435,173.04 331.935,167.373 341.5,164.5 Z"/></g>
<g><path style="opacity:1" fill="#f36062" d="M 113.5,182.5 C 115.068,184.811 115.902,187.478 116,190.5C 117.03,205.584 116.363,220.584 114,235.5C 113.453,239.158 111.786,242.158 109,244.5C 106.894,242.623 105.561,240.29 105,237.5C 102.644,218.305 105.478,199.972 113.5,182.5 Z"/></g>
<g><path style="opacity:1" fill="#f4696a" d="M 263.5,184.5 C 265.091,188.204 265.924,192.204 266,196.5C 266.831,203.524 266.664,210.524 265.5,217.5C 259.632,206.87 258.965,195.87 263.5,184.5 Z"/></g>
<g><path style="opacity:1" fill="#fccccd" d="M 121.5,183.5 C 123.031,188.25 123.698,193.25 123.5,198.5C 122.111,193.731 121.444,188.731 121.5,183.5 Z"/></g>
<g><path style="opacity:1" fill="#fef7f7" d="M 151.5,249.5 C 155.192,248.971 158.358,249.971 161,252.5C 162.968,255.737 164.135,259.237 164.5,263C 163.4,279.949 159.733,296.283 153.5,312C 155.168,322.334 159.501,331.334 166.5,339C 172.48,338.513 174.48,341.013 172.5,346.5C 164.864,347.434 159.03,344.434 155,337.5C 152.906,332.976 150.573,328.642 148,324.5C 141.246,334.256 132.413,341.422 121.5,346C 110.219,347.775 101.385,343.942 95,334.5C 90.3518,323.835 89.3518,312.835 92,301.5C 100.594,286.298 113.428,281.132 130.5,286C 134.283,287.058 137.617,288.891 140.5,291.5C 141.103,281.46 141.937,271.46 143,261.5C 144.147,256.204 146.98,252.204 151.5,249.5 Z"/></g>
<g><path style="opacity:1" fill="#f46668" d="M 151.5,297.5 C 150.833,295.5 150.167,293.5 149.5,291.5C 148.501,283.189 148.335,274.856 149,266.5C 149.202,261.841 151.368,259.008 155.5,258C 156.126,258.75 156.626,259.584 157,260.5C 156.863,273.214 155.03,285.548 151.5,297.5 Z"/></g>
<g><path style="opacity:1" fill="#fef6f6" d="M 276.5,272.5 C 291.951,271.706 305.617,276.206 317.5,286C 320.47,291.361 318.804,293.361 312.5,292C 301.253,280.587 287.92,277.254 272.5,282C 257.203,293.448 254.369,307.615 264,324.5C 275.895,335.974 289.061,337.474 303.5,329C 309.464,322.394 312.464,323.227 312.5,331.5C 310.167,333 307.833,334.5 305.5,336C 300.859,336.819 296.525,338.486 292.5,341C 272.13,343.587 258.63,335.42 252,316.5C 248.541,295.064 256.708,280.397 276.5,272.5 Z"/></g>
<g><path style="opacity:1" fill="#fef6f6" d="M 202.5,274.5 C 220.548,273.433 233.715,280.766 242,296.5C 245.296,319.063 235.796,332.897 213.5,338C 189.342,340.813 176.509,330.313 175,306.5C 175.709,300.999 177.042,295.665 179,290.5C 185.495,283.017 193.329,277.684 202.5,274.5 Z"/></g>
<g><path style="opacity:1" fill="#fef8f8" d="M 351.5,276.5 C 361.29,275.454 370.623,276.954 379.5,281C 386.487,286.815 388.321,293.982 385,302.5C 373.665,312.296 360.498,316.129 345.5,314C 341.131,312.733 337.297,310.567 334,307.5C 336.03,329.115 347.53,336.615 368.5,330C 372.78,328.053 376.113,325.053 378.5,321C 383.936,320.436 385.436,322.603 383,327.5C 375.321,336.583 365.488,340.583 353.5,339.5C 338.958,337.799 329.791,329.799 326,315.5C 325.442,296.625 333.942,283.625 351.5,276.5 Z"/></g>
<g><path style="opacity:1" fill="#f35e60" d="M 207.5,281.5 C 224.778,283.277 234.111,292.777 235.5,310C 235.383,316.895 232.383,322.228 226.5,326C 214.196,334.41 201.862,334.41 189.5,326C 183.079,319.055 180.912,310.889 183,301.5C 185.351,294.481 189.851,289.314 196.5,286C 200.053,283.879 203.72,282.379 207.5,281.5 Z"/></g>
<g><path style="opacity:1" fill="#f36062" d="M 355.5,283.5 C 362.483,283.052 369.15,284.219 375.5,287C 381.14,292.473 380.806,297.473 374.5,302C 363.948,308.636 352.948,309.303 341.5,304C 339.649,302.316 337.982,300.483 336.5,298.5C 340.278,290.035 346.611,285.035 355.5,283.5 Z"/></g>
<g><path style="opacity:1" fill="#f35e61" d="M 98.5,322.5 C 97.1667,317.5 97.1667,312.5 98.5,307.5C 102.067,297.455 109.234,292.121 120,291.5C 129.221,291.944 136.888,295.611 143,302.5C 146.48,308.676 146.147,314.676 142,320.5C 135.801,330.535 126.968,336.869 115.5,339.5C 105.499,338.166 99.8326,332.499 98.5,322.5 Z"/></g>
<g><path style="opacity:1" fill="#f9aeaf" d="M 149.5,291.5 C 150.167,293.5 150.833,295.5 151.5,297.5C 151.631,298.376 151.298,299.043 150.5,299.5C 149.52,296.914 149.187,294.247 149.5,291.5 Z"/></g>
<g><path style="opacity:1" fill="#fcc6c7" d="M 98.5,307.5 C 97.1667,312.5 97.1667,317.5 98.5,322.5C 95.8333,317.5 95.8333,312.5 98.5,307.5 Z"/></g>
<g><path style="opacity:1" fill="#fdeaea" d="M 258.5,406.5 C 259.805,408.397 260.471,410.731 260.5,413.5C 260.167,415.833 259.833,418.167 259.5,420.5C 258.507,415.88 258.173,411.214 258.5,406.5 Z"/></g>
<g><path style="opacity:1" fill="#fddada" d="M 263.5,406.5 C 264.5,406.5 265.5,406.5 266.5,406.5C 266.5,408.167 266.5,409.833 266.5,411.5C 268.722,411.178 270.556,411.845 272,413.5C 272.497,415.81 272.663,418.143 272.5,420.5C 271.5,420.5 270.5,420.5 269.5,420.5C 269.808,418.076 269.474,415.743 268.5,413.5C 267.914,413.709 267.414,414.043 267,414.5C 266.505,416.473 266.338,418.473 266.5,420.5C 265.5,420.5 264.5,420.5 263.5,420.5C 263.5,415.833 263.5,411.167 263.5,406.5 Z"/></g>
<g><path style="opacity:1" fill="#fde6e6" d="M 58.5,407.5 C 61.6852,407.02 64.5185,407.686 67,409.5C 67.6678,414.329 65.5011,416.329 60.5,415.5C 60.7852,417.288 60.4519,418.955 59.5,420.5C 58.5078,416.217 58.1744,411.884 58.5,407.5 Z"/></g>
<g><path style="opacity:1" fill="#f35f61" d="M 60.5,409.5 C 61.8333,409.5 63.1667,409.5 64.5,409.5C 64.5,410.833 64.5,412.167 64.5,413.5C 63.1667,413.5 61.8333,413.5 60.5,413.5C 60.5,412.167 60.5,410.833 60.5,409.5 Z"/></g>
<g><path style="opacity:1" fill="#fddbdb" d="M 389.5,408.5 C 390.5,408.5 391.5,408.5 392.5,408.5C 392.48,410.143 393.147,411.476 394.5,412.5C 392.777,414.868 392.11,417.534 392.5,420.5C 391.5,420.5 390.5,420.5 389.5,420.5C 389.89,417.534 389.223,414.868 387.5,412.5C 388.853,411.476 389.52,410.143 389.5,408.5 Z"/></g>
<g><path style="opacity:1" fill="#f9afb0" d="M 85.5,411.5 C 84.791,412.404 83.791,412.737 82.5,412.5C 82.5,415.167 82.5,417.833 82.5,420.5C 81.5233,417.713 81.19,414.713 81.5,411.5C 82.8333,411.5 84.1667,411.5 85.5,411.5 Z"/></g>
<g><path style="opacity:1" fill="#fef0f1" d="M 85.5,411.5 C 86.0431,411.56 86.3764,411.893 86.5,412.5C 85.3152,415.423 83.9819,418.09 82.5,420.5C 82.5,417.833 82.5,415.167 82.5,412.5C 83.791,412.737 84.791,412.404 85.5,411.5 Z"/></g>
<g><path style="opacity:1" fill="#fee1e1" d="M 91.5,411.5 C 93.8333,411.5 96.1667,411.5 98.5,411.5C 98.5,414.5 98.5,417.5 98.5,420.5C 94.9929,421.006 91.8263,420.34 89,418.5C 88.3333,417.167 88.3333,415.833 89,414.5C 90.045,413.627 90.8783,412.627 91.5,411.5 Z"/></g>
<g><path style="opacity:1" fill="#fee5e5" d="M 146.5,411.5 C 149.463,411.151 151.796,412.151 153.5,414.5C 153,414.833 152.5,415.167 152,415.5C 148.074,412.381 146.241,413.381 146.5,418.5C 148.869,418.149 151.203,417.982 153.5,418C 152.449,419.385 151.116,420.385 149.5,421C 151.592,421.953 151.925,423.286 150.5,425C 149.056,425.781 147.723,425.614 146.5,424.5C 147.376,423.749 148.376,423.249 149.5,423C 144.184,420.258 143.184,416.425 146.5,411.5 Z"/></g>
<g><path style="opacity:1" fill="#f79d9e" d="M 211.5,412.5 C 209.972,413.802 208.972,415.469 208.5,417.5C 208.5,415.5 208.5,413.5 208.5,411.5C 209.791,411.263 210.791,411.596 211.5,412.5 Z"/></g>
<g><path style="opacity:1" fill="#fde2e2" d="M 230.5,411.5 C 234.283,411.924 237.95,412.09 241.5,412C 243.314,414.481 243.98,417.315 243.5,420.5C 242.5,420.5 241.5,420.5 240.5,420.5C 239.833,411.167 239.167,411.167 238.5,420.5C 237.5,420.5 236.5,420.5 235.5,420.5C 234.938,411.43 233.605,411.43 231.5,420.5C 230.516,417.572 230.183,414.572 230.5,411.5 Z"/></g>
<g><path style="opacity:1" fill="#f9afb0" d="M 290.5,411.5 C 289.791,412.404 288.791,412.737 287.5,412.5C 287.5,415.167 287.5,417.833 287.5,420.5C 286.523,417.713 286.19,414.713 286.5,411.5C 287.833,411.5 289.167,411.5 290.5,411.5 Z"/></g>
<g><path style="opacity:1" fill="#fef0f1" d="M 290.5,411.5 C 291.043,411.56 291.376,411.893 291.5,412.5C 290.315,415.423 288.982,418.09 287.5,420.5C 287.5,417.833 287.5,415.167 287.5,412.5C 288.791,412.737 289.791,412.404 290.5,411.5 Z"/></g>
<g><path style="opacity:1" fill="#f9b4b5" d="M 328.5,412.5 C 326.5,412.5 324.5,412.5 322.5,412.5C 322.5,415.167 322.5,417.833 322.5,420.5C 321.523,417.713 321.19,414.713 321.5,411.5C 324.059,411.198 326.393,411.532 328.5,412.5 Z"/></g>
<g><path style="opacity:1" fill="#feeeee" d="M 322.5,420.5 C 322.5,417.833 322.5,415.167 322.5,412.5C 324.5,412.5 326.5,412.5 328.5,412.5C 330.339,411.248 332.172,411.248 334,412.5C 334.818,415.227 334.652,417.894 333.5,420.5C 332.041,411.39 330.374,411.39 328.5,420.5C 327.833,418.167 327.167,415.833 326.5,413.5C 325.278,415.977 323.945,418.31 322.5,420.5 Z"/></g>
<g><path style="opacity:1" fill="#fee3e3" d="M 349.5,411.5 C 353.637,411.963 357.637,412.296 361.5,412.5C 362.833,415.167 362.833,417.833 361.5,420.5C 360.833,418.167 360.167,415.833 359.5,413.5C 358.914,413.709 358.414,414.043 358,414.5C 357.505,416.473 357.338,418.473 357.5,420.5C 356.5,420.5 355.5,420.5 354.5,420.5C 353.833,411.167 353.167,411.167 352.5,420.5C 351.5,420.5 350.5,420.5 349.5,420.5C 349.5,417.5 349.5,414.5 349.5,411.5 Z"/></g>
<g><path style="opacity:1" fill="#feecec" d="M 377.5,411.5 C 384.704,410.573 387.038,413.573 384.5,420.5C 383.526,418.257 383.192,415.924 383.5,413.5C 382.178,413.33 381.011,413.663 380,414.5C 379.808,416.577 379.308,418.577 378.5,420.5C 377.516,417.572 377.183,414.572 377.5,411.5 Z"/></g>
<g><path style="opacity:1" fill="#fee6e6" d="M 398.5,411.5 C 405.494,411.415 407.161,414.248 403.5,420C 395.208,420.89 393.542,418.057 398.5,411.5 Z"/></g>
<g><path style="opacity:1" fill="#f36264" d="M 92.5,413.5 C 95.0838,414.048 96.0838,415.715 95.5,418.5C 94.1667,418.5 92.8333,418.5 91.5,418.5C 91.366,416.708 91.6993,415.042 92.5,413.5 Z"/></g>
<g><path style="opacity:1" fill="#fee6e6" d="M 306.5,411.5 C 308.827,411.247 310.827,411.914 312.5,413.5C 311.167,413.833 309.833,414.167 308.5,414.5C 311.824,415.159 313.157,417.159 312.5,420.5C 310.473,420.662 308.473,420.495 306.5,420C 305.304,419.346 305.304,418.846 306.5,418.5C 307.891,419.645 309.224,419.645 310.5,418.5C 309.15,417.05 307.484,416.383 305.5,416.5C 305.366,414.708 305.699,413.042 306.5,411.5 Z"/></g>
<g><path style="opacity:1" fill="#f46c6d" d="M 399.5,413.5 C 403.161,413.35 404.161,414.85 402.5,418C 401.207,418.49 399.873,418.657 398.5,418.5C 398.366,416.708 398.699,415.042 399.5,413.5 Z"/></g>
<g><path style="opacity:1" fill="#fedddc" d="M 296.5,411.5 C 302.75,411.882 304.417,414.715 301.5,420C 295.507,421.668 293.007,419.502 294,413.5C 294.995,412.934 295.828,412.267 296.5,411.5 Z"/></g>
<g><path style="opacity:1" fill="#f35f62" d="M 297.5,413.5 C 298.756,413.461 299.756,413.961 300.5,415C 299.167,415.667 297.833,415.667 296.5,415C 297.056,414.617 297.389,414.117 297.5,413.5 Z"/></g>
<g><path style="opacity:1" fill="#fee6e6" d="M 110.5,411.5 C 112.833,411.5 115.167,411.5 117.5,411.5C 117.5,414.5 117.5,417.5 117.5,420.5C 113.993,421.006 110.826,420.34 108,418.5C 106.916,415.341 107.75,413.008 110.5,411.5 Z"/></g>
<g><path style="opacity:1" fill="#f36365" d="M 111.5,413.5 C 114.084,414.048 115.084,415.715 114.5,418.5C 113.167,418.5 111.833,418.5 110.5,418.5C 110.366,416.708 110.699,415.042 111.5,413.5 Z"/></g>
<g><path style="opacity:1" fill="#fee6e6" d="M 158.5,411.5 C 160.833,411.5 163.167,411.5 165.5,411.5C 165.5,414.5 165.5,417.5 165.5,420.5C 161.993,421.006 158.826,420.34 156,418.5C 154.916,415.341 155.75,413.008 158.5,411.5 Z"/></g>
<g><path style="opacity:1" fill="#f36365" d="M 159.5,413.5 C 162.084,414.048 163.084,415.715 162.5,418.5C 161.167,418.5 159.833,418.5 158.5,418.5C 158.366,416.708 158.699,415.042 159.5,413.5 Z"/></g>
<g><path style="opacity:1" fill="#feedee" d="M 168.5,411.5 C 170.288,411.215 171.955,411.548 173.5,412.5C 172.758,413.287 171.925,413.953 171,414.5C 170.808,416.577 170.308,418.577 169.5,420.5C 168.516,417.572 168.183,414.572 168.5,411.5 Z"/></g>
<g><path style="opacity:1" fill="#feeff0" d="M 200.5,416.5 C 198.076,416.192 195.743,416.526 193.5,417.5C 193.833,418.5 194.5,419.167 195.5,419.5C 196.995,418.295 198.328,418.295 199.5,419.5C 191.473,421.858 189.473,419.358 193.5,412C 197.57,411.025 199.903,412.525 200.5,416.5 Z"/></g>
<g><path style="opacity:1" fill="#f57475" d="M 194.5,413.5 C 196.103,413.312 197.437,413.812 198.5,415C 196.833,415.667 195.167,415.667 193.5,415C 194.056,414.617 194.389,414.117 194.5,413.5 Z"/></g>
<g><path style="opacity:1" fill="#feeff0" d="M 374.5,416.5 C 372.076,416.192 369.743,416.526 367.5,417.5C 367.833,418.5 368.5,419.167 369.5,419.5C 370.995,418.295 372.328,418.295 373.5,419.5C 365.473,421.858 363.473,419.358 367.5,412C 371.57,411.025 373.903,412.525 374.5,416.5 Z"/></g>
<g><path style="opacity:1" fill="#f57475" d="M 368.5,413.5 C 370.103,413.312 371.437,413.812 372.5,415C 370.833,415.667 369.167,415.667 367.5,415C 368.056,414.617 368.389,414.117 368.5,413.5 Z"/></g>
<g><path style="opacity:1" fill="#fab1b1" d="M 200.5,416.5 C 200.737,417.791 200.404,418.791 199.5,419.5C 198.328,418.295 196.995,418.295 195.5,419.5C 194.5,419.167 193.833,418.5 193.5,417.5C 195.743,416.526 198.076,416.192 200.5,416.5 Z"/></g>
<g><path style="opacity:1" fill="#fee3e3" d="M 216.5,417.5 C 213.232,416.145 212.898,414.312 215.5,412C 218.003,411.126 220.003,411.793 221.5,414C 215.548,412.964 215.214,413.798 220.5,416.5C 221.583,417.365 221.749,418.365 221,419.5C 218.163,421.053 215.663,420.72 213.5,418.5C 214.325,417.614 215.325,417.281 216.5,417.5 Z"/></g>
<g><path style="opacity:1" fill="#faaeae" d="M 255.5,416.5 C 255.737,417.791 255.404,418.791 254.5,419.5C 253.328,418.295 251.995,418.295 250.5,419.5C 249.5,419.167 248.833,418.5 248.5,417.5C 250.743,416.526 253.076,416.192 255.5,416.5 Z"/></g>
<g><path style="opacity:1" fill="#fab1b1" d="M 374.5,416.5 C 374.737,417.791 374.404,418.791 373.5,419.5C 372.328,418.295 370.995,418.295 369.5,419.5C 368.5,419.167 367.833,418.5 367.5,417.5C 369.743,416.526 372.076,416.192 374.5,416.5 Z"/></g>
<g><path style="opacity:1" fill="#fee9e9" d="M 71.5,411.5 C 73.674,411.92 75.674,411.92 77.5,411.5C 78.4841,414.428 78.8174,417.428 78.5,420.5C 75.5525,420.777 72.7191,420.444 70,419.5C 67.8808,416.354 68.3808,413.687 71.5,411.5 Z"/></g>
<g><path style="opacity:1" fill="#f57474" d="M 72.5,413.5 C 77.394,414.54 77.7274,416.54 73.5,419.5C 71.261,417.867 70.9277,415.867 72.5,413.5 Z"/></g>
<g><path style="opacity:1" fill="#fee8e9" d="M 126.5,406.5 C 127.5,406.5 128.5,406.5 129.5,406.5C 129.5,411.167 129.5,415.833 129.5,420.5C 126.813,420.664 124.146,420.497 121.5,420C 118.583,414.715 120.25,411.882 126.5,411.5C 126.5,409.833 126.5,408.167 126.5,406.5 Z"/></g>
<g><path style="opacity:1" fill="#f57474" d="M 123.5,413.5 C 128.394,414.54 128.727,416.54 124.5,419.5C 122.261,417.867 121.928,415.867 123.5,413.5 Z"/></g>
<g><path style="opacity:1" fill="#fee5e5" d="M 183.5,411.5 C 185.144,411.286 186.644,411.62 188,412.5C 188.688,413.332 188.521,413.998 187.5,414.5C 186.391,413.41 185.391,413.41 184.5,414.5C 185.736,415.357 187.069,416.023 188.5,416.5C 189.731,417.651 189.731,418.817 188.5,420C 186.231,420.758 184.064,420.591 182,419.5C 181.312,418.668 181.479,418.002 182.5,417.5C 183.5,418.167 184.5,418.833 185.5,419.5C 185.833,419.167 186.167,418.833 186.5,418.5C 185.086,417.376 183.586,416.376 182,415.5C 181.516,413.807 182.016,412.473 183.5,411.5 Z"/></g>
<g><path style="opacity:1" fill="#feeaeb" d="M 208.5,417.5 C 208.972,415.469 209.972,413.802 211.5,412.5C 211.5,415.167 211.5,417.833 211.5,420.5C 203.77,421.857 201.437,418.857 204.5,411.5C 205.474,413.743 205.808,416.076 205.5,418.5C 206.791,418.737 207.791,418.404 208.5,417.5 Z"/></g>
<g><path style="opacity:1" fill="#fee5e5" d="M 409.5,411.5 C 411.144,411.286 412.644,411.62 414,412.5C 414.688,413.332 414.521,413.998 413.5,414.5C 412.391,413.41 411.391,413.41 410.5,414.5C 411.736,415.357 413.069,416.023 414.5,416.5C 415.731,417.651 415.731,418.817 414.5,420C 412.231,420.758 410.064,420.591 408,419.5C 407.312,418.668 407.479,418.002 408.5,417.5C 409.5,418.167 410.5,418.833 411.5,419.5C 411.833,419.167 412.167,418.833 412.5,418.5C 411.086,417.376 409.586,416.376 408,415.5C 407.516,413.807 408.016,412.473 409.5,411.5 Z"/></g>
<g><path style="opacity:1" fill="#fde3e3" d="M 135.5,411.5 C 141.803,411.924 143.469,414.757 140.5,420C 134.507,421.668 132.007,419.502 133,413.5C 133.995,412.934 134.828,412.267 135.5,411.5 Z"/></g>
<g><path style="opacity:1" fill="#f46c6d" d="M 135.5,413.5 C 138.91,413.384 140.244,415.05 139.5,418.5C 135.065,419.078 133.732,417.411 135.5,413.5 Z"/></g>
<g><path style="opacity:1" fill="#f4686b" d="M 216.5,417.5 C 218.337,417.639 218.67,418.306 217.5,419.5C 216.702,419.043 216.369,418.376 216.5,417.5 Z"/></g>
<g><path style="opacity:1" fill="#fee9e9" d="M 255.5,416.5 C 253.076,416.192 250.743,416.526 248.5,417.5C 248.833,418.5 249.5,419.167 250.5,419.5C 251.995,418.295 253.328,418.295 254.5,419.5C 251.418,421.069 248.585,420.735 246,418.5C 245.911,412.264 248.744,410.431 254.5,413C 255.337,414.011 255.67,415.178 255.5,416.5 Z"/></g>
<g><path style="opacity:1" fill="#f36366" d="M 249.5,413.5 C 250.756,413.461 251.756,413.961 252.5,415C 251.167,415.667 249.833,415.667 248.5,415C 249.056,414.617 249.389,414.117 249.5,413.5 Z"/></g>
<g><path style="opacity:1" fill="#fde3e3" d="M 277.5,411.5 C 283.803,411.924 285.469,414.757 282.5,420C 276.507,421.668 274.007,419.502 275,413.5C 275.995,412.934 276.828,412.267 277.5,411.5 Z"/></g>
<g><path style="opacity:1" fill="#f46c6d" d="M 277.5,413.5 C 280.91,413.384 282.244,415.05 281.5,418.5C 277.065,419.078 275.732,417.411 277.5,413.5 Z"/></g>
<g><path style="opacity:1" fill="#fde3e3" d="M 340.5,411.5 C 346.803,411.924 348.469,414.757 345.5,420C 339.507,421.668 337.007,419.502 338,413.5C 338.995,412.934 339.828,412.267 340.5,411.5 Z"/></g>
<g><path style="opacity:1" fill="#f46c6d" d="M 340.5,413.5 C 343.91,413.384 345.244,415.05 344.5,418.5C 340.065,419.078 338.732,417.411 340.5,413.5 Z"/></g>
<g><path style="opacity:1" fill="#fde6e6" d="M 417.5,418.5 C 418.675,418.281 419.675,418.614 420.5,419.5C 418.948,420.798 417.948,420.465 417.5,418.5 Z"/></g>
<g><path style="opacity:1" fill="#fdeaea" d="M 18.5,18.5 C 18.5,165.5 18.5,312.5 18.5,459.5C 165.5,459.5 312.5,459.5 459.5,459.5C 312.334,460.5 165.001,460.833 17.5,460.5C 17.167,312.999 17.5004,165.666 18.5,18.5 Z"/></g>
</svg>
